<svg xmlns="http://www.w3.org/2000/svg" width="506" height="555" viewBox="0 0 506 555" role="img" aria-label="vrathik@aios neofetch panel: AI Engineer in Computer Vision and Generative AI; stack PyTorch, CUDA, OpenCV, Diffusers; GitHub 32 repos 11 stars 2 followers; contact github.com/vrathikshenoy, in/vrathik-shenoy, shenoyvrathik@gmail.com"><style>text.i{font-family:ui-monospace,'JetBrains Mono','Fira Code',Menlo,Consolas,monospace;font-size:15px}@keyframes blink{0%,49%{opacity:1}50%,100%{opacity:0}}.cur{animation:blink 1.1s steps(1) infinite}</style><rect x="0.5" y="0.5" width="505" height="554" rx="12" fill="#161B22" stroke="#30363D"/><rect x="9.5" y="9.5" width="487" height="536" rx="8" fill="#0D1117" stroke="#30363D"/><text class="i" x="30" y="45" font-weight="bold"><tspan fill="#58A6FF">vrathik</tspan><tspan fill="#39D0FF">@shenoy</tspan></text><text class="i" x="30" y="69" fill="#8B949E">────────────────────────</text><text class="i" x="30" y="93" fill="#58A6FF">OS</text><text class="i" x="134" y="93" fill="#C9D1D9">Arch, Kubuntu, Windows</text><text class="i" x="30" y="117" fill="#58A6FF">Host</text><text class="i" x="134" y="117" fill="#C9D1D9"> Generative AI</text><text class="i" x="30" y="141" fill="#58A6FF">Kernel</text><text class="i" x="134" y="141" fill="#C9D1D9">6.13-neural-cuda</text><text class="i" x="30" y="165" fill="#58A6FF">Uptime</text><text class="i" x="134" y="165" fill="#C9D1D9"><tspan data-k="uptime">7 years, 6 months</tspan></text><text class="i" x="30" y="189" fill="#58A6FF">Shell</text><text class="i" x="134" y="189" fill="#C9D1D9">zsh · python 3.12</text><text class="i" x="30" y="213" fill="#58A6FF">Role</text><text class="i" x="134" y="213" fill="#C9D1D9">AI Engineer</text><text class="i" x="30" y="237" fill="#58A6FF">Editor</text><text class="i" x="134" y="237" fill="#C9D1D9">Neovim · Zed · VS Code</text><text class="i" x="30" y="285" fill="#58A6FF">Stack</text><text class="i" x="134" y="285" fill="#C9D1D9">PyTorch · OpenCV  · Diffusers · NextJs</text><text class="i" x="30" y="309" fill="#58A6FF">Focus</text><text class="i" x="134" y="309" fill="#C9D1D9">Latent Diffusion · VTON · VLMs</text><text class="i" x="30" y="333" fill="#58A6FF">Projects</text><text class="i" x="134" y="333" fill="#C9D1D9">wearify ● · City-360 ● · LLM-Agent ●</text><text class="i" x="30" y="381" fill="#58A6FF">GitHub</text><text class="i" x="134" y="381" fill="#C9D1D9">github.com/vrathikshenoy</text><text class="i" x="30" y="405" fill="#58A6FF">LinkedIn</text><text class="i" x="134" y="405" fill="#C9D1D9">in/vrathik-shenoy</text><text class="i" x="30" y="429" fill="#58A6FF">Email</text><text class="i" x="134" y="429" fill="#C9D1D9">shenoyvrathik@gmail.com</text><text class="i" x="30" y="465"><tspan fill="#8B949E">Repos </tspan><tspan data-k="repos" fill="#3FB950">32</tspan><tspan fill="#8B949E">   Stars </tspan><tspan data-k="stars" fill="#39D0FF">11</tspan><tspan fill="#8B949E">   Followers </tspan><tspan data-k="followers" fill="#A371F7">2</tspan></text><text class="i" x="30" y="501" fill="#39D0FF">❯ <tspan data-k="fortune" fill="#8B949E">make the machine see, then think.</tspan><tspan class="cur" fill="#39D0FF"> █</tspan></text><rect x="30" y="513" width="28" height="15" rx="3" fill="#0D1117" stroke="#30363D"/><rect x="64" y="513" width="28" height="15" rx="3" fill="#58A6FF" stroke="#30363D"/><rect x="98" y="513" width="28" height="15" rx="3" fill="#39D0FF" stroke="#30363D"/><rect x="132" y="513" width="28" height="15" rx="3" fill="#3FB950" stroke="#30363D"/><rect x="166" y="513" width="28" height="15" rx="3" fill="#A371F7" stroke="#30363D"/><rect x="200" y="513" width="28" height="15" rx="3" fill="#FFBD2E" stroke="#30363D"/><rect x="234" y="513" width="28" height="15" rx="3" fill="#FF5F56" stroke="#30363D"/><rect x="268" y="513" width="28" height="15" rx="3" fill="#C9D1D9" stroke="#30363D"/></svg>